<mxfile host="app.diagrams.net" modified="2024-06-01T11:31:17.124Z" agent="Mozilla/5.0 (Macintosh; Intel Mac OS X 10_15_7) AppleWebKit/605.1.15 (KHTML, like Gecko) Version/15.6 Safari/605.1.15" etag="XlHLM7AVmdKxyLTPpk6B" version="24.4.13" type="github">
  <diagram name="Page-1" id="E99-I2yJwPUV4BddeoXo">
    <mxGraphModel dx="954" dy="647" grid="1" gridSize="10" guides="1" tooltips="1" connect="1" arrows="1" fold="1" page="1" pageScale="1" pageWidth="850" pageHeight="1100" math="0" shadow="0">
      <root>
        <mxCell id="0" />
        <mxCell id="1" parent="0" />
        <mxCell id="6m73HVLtPa08P5zliRXG-1" value="&lt;div&gt;Global Frame:&lt;/div&gt;&lt;div&gt;x = 1&lt;/div&gt;&lt;div&gt;y = 2&lt;/div&gt;&lt;div&gt;&lt;br&gt;&lt;/div&gt;" style="rounded=0;whiteSpace=wrap;html=1;" vertex="1" parent="1">
          <mxGeometry x="50" y="90" width="310" height="150" as="geometry" />
        </mxCell>
        <mxCell id="6m73HVLtPa08P5zliRXG-2" value="" style="rounded=0;whiteSpace=wrap;html=1;" vertex="1" parent="1">
          <mxGeometry x="50" y="240" width="310" height="150" as="geometry" />
        </mxCell>
        <mxCell id="6m73HVLtPa08P5zliRXG-3" value="" style="rounded=0;whiteSpace=wrap;html=1;" vertex="1" parent="1">
          <mxGeometry x="360" y="90" width="310" height="150" as="geometry" />
        </mxCell>
      </root>
    </mxGraphModel>
  </diagram>
</mxfile>
